<?xml version="1.0" encoding="UTF-8"?>
<svg id="_Слой_2" data-name="Слой 2" xmlns="http://www.w3.org/2000/svg" viewBox="0 0 35 28">
  <defs>
    <style>
      .cls-1, .cls-2 {
        fill: #fab63d;
      }

      .cls-3 {
        fill: #ebebeb;
      }

      .cls-2 {
        opacity: .3;
      }
    </style>
  </defs>
  <g id="_Слой_1-2" data-name="Слой 1">
    <g>
      <path class="cls-1" d="M28.06,20.71H6.94c-3.83,0-6.94-3.21-6.94-7.18V7.18C0,3.21,3.11,0,6.94,0H28.06c3.83,0,6.94,3.21,6.94,7.18v6.35c0,3.96-3.11,7.18-6.94,7.18"/>
      <path class="cls-2" d="M28.06,28H6.94c-3.83,0-6.94-3.21-6.94-7.18v-6.35c0-3.96,3.11-7.18,6.94-7.18H28.06c3.83,0,6.94,3.21,6.94,7.18v6.35c0,3.96-3.11,7.18-6.94,7.18"/>
      <g>
        <path class="cls-3" d="M7.82,16.69c-1.34,.18-2.31-.2-2.76-1.18-.18-.39-.28-.86-.28-1.29-.03-2.37-.02-4.73-.01-7.1,0-1.51,.85-2.44,2.3-2.53,.11,0,.22,0,.33,0,6.92,0,13.85,0,20.77,0,.77,0,1.48,.15,2.03,.77,.41,.47,.59,1.03,.59,1.65,0,2.44,0,4.87,0,7.31,0,1.45-.95,2.4-2.36,2.42-.22,0-.43,0-.7,0-.17-.78-.35-1.55-.52-2.32-.19-.89-.38-1.77-.57-2.66-.09-.41-.33-.66-.76-.69-.15,0-.3-.01-.45-.01-5.11,0-10.21,0-15.32,0-.92,0-1.06,.1-1.26,1.04-.31,1.4-.61,2.81-.91,4.21-.03,.13-.07,.26-.11,.39Zm13.43-6.69c.19,0,.38,.01,.57,0,.4-.03,.68-.32,.69-.73,.01-.41-.24-.75-.63-.78-.4-.03-.81-.03-1.21,0-.38,.03-.65,.39-.63,.78,.01,.4,.3,.7,.69,.73,.17,.01,.35,0,.53,0Zm3.51,0s0,0,0,0c.19,0,.38,.01,.57,0,.4-.03,.67-.32,.68-.73,.01-.41-.24-.75-.63-.78-.4-.03-.81-.03-1.21,0-.38,.03-.64,.39-.63,.79,.01,.38,.29,.69,.66,.72,.19,.02,.38,0,.57,0Z"/>
        <path class="cls-3" d="M9.37,16.7c.22-1.01,.43-1.99,.64-2.97,.08-.37,.07-.88,.3-1.05,.25-.19,.72-.08,1.1-.08,4.48,0,8.96,0,13.44,0,.31,0,.44,.07,.51,.4,.25,1.23,.52,2.45,.8,3.7H9.37Z"/>
        <path class="cls-3" d="M16.71,23.57c.13-.35,.22-.71,.39-1.04,.19-.37,.21-.69,0-1.06-.45-.79-.43-1.58-.02-2.39,.1-.19,.16-.41,.2-.63,.08-.43,.38-.69,.79-.67,.41,.03,.73,.34,.68,.78-.05,.4-.16,.82-.32,1.19-.16,.37-.2,.67,0,1.02,.46,.82,.45,1.64,0,2.46-.08,.15-.14,.33-.16,.51-.08,.49-.38,.77-.82,.73-.43-.04-.68-.37-.73-.91Z"/>
        <path class="cls-3" d="M22.81,18.73c-.13,.35-.23,.71-.38,1.04-.16,.34-.18,.66,0,.99,.45,.82,.44,1.64,0,2.47-.1,.19-.13,.42-.19,.63-.1,.41-.4,.65-.8,.61-.39-.04-.7-.34-.66-.75,.05-.42,.16-.85,.32-1.23,.15-.35,.18-.65,0-.99-.46-.82-.45-1.64,0-2.47,.08-.15,.13-.33,.16-.51,.09-.51,.41-.79,.87-.73,.43,.06,.65,.38,.68,.94Z"/>
        <path class="cls-3" d="M12.72,23.59c.12-.35,.2-.72,.37-1.05,.19-.39,.19-.72-.01-1.1-.41-.76-.4-1.54-.02-2.32,.11-.22,.16-.47,.23-.71,.11-.43,.41-.66,.83-.61,.39,.05,.67,.35,.63,.78-.04,.39-.15,.79-.31,1.15-.17,.38-.21,.7,0,1.07,.45,.8,.43,1.62,0,2.43-.09,.17-.13,.36-.17,.55-.09,.48-.42,.76-.85,.7-.42-.05-.66-.37-.7-.89Z"/>
      </g>
    </g>
  </g>
</svg>