<?xml version="1.0" encoding="UTF-8"?>
<svg id="_Слой_2" data-name="Слой 2" xmlns="http://www.w3.org/2000/svg" xmlns:xlink="http://www.w3.org/1999/xlink" viewBox="0 0 45 45">
  <defs>
    <style>
      .cls-1 {
        fill: #fff;
      }

      .cls-2 {
        fill: url(#_Безымянный_градиент_11);
      }
    </style>
    <linearGradient id="_Безымянный_градиент_11" data-name="Безымянный градиент 11" x1="36.96" y1="5.26" x2="8.04" y2="39.74" gradientUnits="userSpaceOnUse">
      <stop offset="0" stop-color="#6026ff"/>
      <stop offset="1" stop-color="#b526ff"/>
    </linearGradient>
  </defs>
  <g id="_Слой_1-2" data-name="Слой 1">
    <g>
      <circle class="cls-2" cx="22.5" cy="22.5" r="22.5"/>
      <path class="cls-1" d="M11.83,24.95c.26-.71,.52-1.42,.78-2.13,0,0,0,0,0,0,1.09-2.56,2.63-4.93,4.33-7.12,0-.03,.01-.04,.04-.05,.19-.23,.39-.45,.58-.68,.89-.99,1.91-1.97,3.05-2.7,3.68-2.34,6.8,2.72,8.81,5.22,2.83,4.12,7.94,13.22,.25,14.97-4.71,1.26-12.88,1.7-16.91-1.17-.68-.59-1.38-1.32-1.39-2.25h0c-.37-1.37,.18-2.75,.45-4.09Z"/>
    </g>
  </g>
</svg>