<?xml version="1.0" encoding="UTF-8"?>
<svg id="_Слой_2" data-name="Слой 2" xmlns="http://www.w3.org/2000/svg" viewBox="0 0 20 30">
  <defs>
    <style>
      .cls-1 {
        fill: #abc2e6;
      }

      .cls-2 {
        fill: #1d2446;
      }
    </style>
  </defs>
  <g id="_Слой_1-2" data-name="Слой 1">
    <g>
      <rect class="cls-2" width="20" height="30" rx="6.38" ry="6.38"/>
      <path class="cls-1" d="M6.7,13.28c0-.57,0-1.12,0-1.66,0-1.72,1.08-3.1,2.7-3.45,1.67-.36,3.45,.84,3.8,2.58,.1,.49,.08,1.01,.1,1.52,.01,.33,0,.66,0,1.01,.14,0,.27,0,.4,0,.71,.01,1.25,.56,1.25,1.29,0,2.01,0,4.02,0,6.03,0,.73-.54,1.29-1.23,1.29-2.48,0-4.97,0-7.45,0-.68,0-1.22-.56-1.22-1.27,0-2.02,0-4.03,0-6.05,0-.72,.54-1.27,1.23-1.28,.13,0,.26,0,.41,0m1.1-.01h4.39c0-.63,.02-1.24,0-1.86-.04-1.07-.87-2-1.88-2.12-1.1-.14-2.12,.53-2.41,1.6-.21,.78-.05,1.58-.11,2.38"/>
    </g>
  </g>
</svg>