<?xml version="1.0" encoding="UTF-8"?>
<svg id="_Слой_2" data-name="Слой 2" xmlns="http://www.w3.org/2000/svg" viewBox="0 0 20 30">
  <defs>
    <style>
      .cls-1 {
        fill: #9e9696;
      }

      .cls-2 {
        fill: #766d6e;
      }

      .cls-3 {
        fill: #756f6f;
      }

      .cls-4 {
        fill: #fab63d;
      }

      .cls-5 {
        fill: #746d6d;
      }

      .cls-6 {
        fill: #eee1dc;
      }

      .cls-7 {
        fill: #ddd0cb;
      }

      .cls-8 {
        fill: #010101;
      }
    </style>
  </defs>
  <g id="_Слой_1-2" data-name="Слой 1">
    <g>
      <rect class="cls-4" width="20" height="30" rx="6.38" ry="6.38"/>
      <g>
        <path d="M3.06,9.5c-.13,.28-.32,.32-.6,.22C.82,9.12-.12,7.27,.31,5.45c.41-1.74,2.12-2.91,3.8-2.65,1.58,.24,2.79,1.6,2.91,3.11,.03,.36,.14,.4,.44,.31,.44-.13,.9-.1,1.34,.02,.22,.05,.3,.05,.34-.23,.28-2.18,2-3.51,4.08-3.17,1.33,.22,2.52,1.55,2.72,2.93,.33,2.25-1.33,3.99-2.96,4.12-.32,.03-.41,.15-.35,.48,.07,.36,.08,.73,0,1.1-.04,.17,.02,.25,.2,.26,.13,0,.26,.06,.39,.11,.16,.07,.25,.21,.21,.39-.05,.2-.21,.35-.38,.27-.56-.27-.69,.1-.84,.54-.1,.3-.27,.57-.42,.86,.37,.16,.75,.29,1.09,.52,.21,.14,.46,.28,.29,.59-.17,.3-.41,.18-.63,.04-.29-.19-.61-.31-.93-.43-.21-.08-.35-.04-.45,.16-.06,.12-.08,.26-.18,.36-.71,.79-1.49,1.5-2.36,2.09-.48,.33-.62,.3-1.09-.03-.55-.4-1.03-.89-1.56-1.32-.15-.15-.29-.3-.44-.46-.13-.14-.24-.17-.34,.03-.38,.79-.83,1.57-1.04,2.43-.31,1.3,.26,2.7,1.62,3.24,.3,.12,.52,.06,.59-.17,.1-.3-.09-.47-.32-.55-.77-.26-1.3-1.07-1.21-2.12,.03-.34,.19-.56,.43-.56,.24,0,.4,.22,.42,.57,0,.17,0,.33,.04,.49,.03,.11,.04,.25,.15,.29,.13,.05,.19-.09,.26-.17,.35-.39,.74-.7,1.24-.85,1.02-.29,1.87,.02,2.59,.79,.09,.09,.14,.29,.29,.23,.15-.05,.16-.25,.19-.39,.04-.17,.02-.36,.03-.53,.01-.25,.12-.42,.37-.44,.26-.02,.42,.14,.46,.39,.14,.99-.25,1.88-1.08,2.24-.08,.03-.16,.07-.23,.11-.17,.1-.3,.24-.21,.46,.09,.24,.28,.31,.51,.22,.74-.27,1.3-.75,1.58-1.53,.27-.73,.32-1.45-.02-2.18-.18-.39-.31-.8-.5-1.19-.19-.47-.16-.6,.17-.73,.26-.07,.4,.08,.5,.31,.83,1.86,1.5,3.77,1.74,5.82,0,.05,.02,.09,.03,.14,.65-.24,1.08-.85,1.11-1.6,.02-.52,0-1.04,.01-1.56,.05-2.19,1.72-3.95,3.76-3.95,.63,0,1.1,.45,1.11,1.05,0,.6-.45,1.07-1.08,1.1-.81,.04-1.5,.58-1.67,1.39-.08,.38-.05,.79-.04,1.18,0,.68,.01,1.35-.22,2-.57,1.57-1.65,2.47-3.24,2.69-.15,.02-.25,.05-.31,.2-.08,.18-.18,.36-.29,.55,.57,.21,1,.57,1.19,1.19,.23,.76-.07,1.19-.82,1.19-.65,0-1.29,0-1.94,0-.17,0-.38,.02-.5-.08-.34-.29-.66-.14-1.02-.08-1.32,.24-2.64,.29-3.94-.11-.13-.04-.23-.04-.34,.05-.23,.18-.5,.23-.79,.23-.63,0-1.27-.03-1.9,0-.74,.05-1.08-.43-.82-1.25,.16-.5,.49-.84,.95-1.04,.11-.05,.26-.04,.13-.27-.84-1.44-.91-2.97-.49-4.58,.48-1.84,1.11-3.62,2-5.29,.03-.05,.05-.11,.09-.21-.45,.08-.82,.27-1.17,.49-.21,.14-.43,.2-.57-.05-.14-.24,0-.43,.21-.56,.39-.24,.8-.42,1.25-.57-.27-.47-.54-.92-.7-1.43-.04-.13-.14-.12-.24-.11-.18,.03-.36,.07-.54,.09-.19,.02-.34-.04-.39-.25-.05-.22,.03-.37,.24-.44,.01,0,.02,0,.03-.01,.22-.05,.52-.03,.64-.18,.1-.12-.02-.43-.03-.66-.03-.4,.08-.78,.15-1.17,0-.41,.17-.75,.36-1.09,.43-.76,1.01-1.36,1.73-1.83,.56-.37,.6-.45,.46-1.14-.36-1.21-1.24-2.02-2.43-2.08-1.31-.07-2.66,.98-2.74,2.53-.07,1.35,.52,2.25,1.66,2.81,.22,.11,.51,.2,.38,.57"/>
        <path class="cls-1" d="M3.06,9.5c0-.25-.15-.37-.36-.46-1.3-.54-1.97-1.74-1.78-3.18,.16-1.23,1.22-2.23,2.52-2.38,1.25-.14,2.58,.87,2.84,2.18,.08,.26-.14,.3-.28,.37-1.02,.52-1.79,1.3-2.34,2.33-.14,.26-.24,.53-.35,.8-.05,.13-.07,.27-.21,.35h-.02s-.02,0-.02,0Z"/>
        <path class="cls-3" d="M6.05,15.82c.54,.45,1.08,.89,1.62,1.35,.28,.24,.52,.24,.82,.03,.99-.69,1.91-1.48,2.68-2.44,.07,.28,.22,.52,.37,.75-.32,.19-.2,.45-.09,.7-1.05,1.55-2.57,2.23-4.05,1.22-.51-.35-.89-.86-1.31-1.31-.07-.08-.14-.18-.04-.3"/>
        <path class="cls-3" d="M3.1,9.51c.48-1.62,1.41-2.84,2.89-3.58,.12-.06,.26-.09,.28-.26,.11,.24,.07,.49,.09,.74,0,.18-.13,.21-.25,.28-1.04,.59-1.83,1.44-2.31,2.59-.06,.15-.11,.3-.16,.45-.09-.3-.39-.06-.53-.22"/>
        <path class="cls-1" d="M11.74,12.39c-.1,.24-.19,.42-.26,.61-.22,.52-.5,.93-1.14,.77-.09-.02-.2,0-.29,.02-.16,.05-.24,.17-.24,.34,0,.19,.11,.31,.29,.33,.11,.01,.22,0,.38,0-.37,.48-.77,.85-1.2,1.23-.24-.49-.58-.83-1.12-.86-.48-.03-.85,.18-1.12,.59-.07,.11-.11,.24-.26,.09-.32-.33-.66-.63-.96-1.02,.13-.01,.23,0,.31-.04,.14-.05,.21-.16,.21-.32,0-.16-.07-.27-.2-.33-.04-.02-.1-.02-.14-.03-.27-.06-.61,.13-.8-.1-.31-.35-.53-.77-.7-1.26,.44,.09,.82,.24,1.17,.48,.22,.14,.46,.28,.63-.03,.16-.3-.06-.46-.28-.6-.43-.27-.89-.49-1.39-.55-.32-.04-.41-.18-.45-.53-.19-1.9,1.31-3.48,2.54-3.99,1.5-.62,3.26-.21,4.3,1.06,.73,.89,1.04,1.93,.96,3.11-.02,.26-.15,.32-.35,.33-.56,.05-1.06,.27-1.53,.58-.21,.14-.41,.31-.24,.58,.17,.27,.39,.17,.6,.02,.37-.26,.77-.42,1.28-.5"/>
        <path class="cls-1" d="M5.45,22.4c.14,.38,.25,.76,.45,1.11,1.1,1.88,3.36,1.84,4.4-.08,.18-.33,.29-.69,.41-1.05,.14-.14,.34-.14,.5-.21,.57-.25,1.05-.63,1.41-1.17,.08-.11,.1-.3,.3-.29,.76,2.53-1.06,5.67-4.18,5.78-1.01,.04-2.02,.06-2.98-.38-1.97-.9-3.06-3.1-2.57-5.25,.21-.2,.26,.04,.34,.14,.39,.52,.86,.94,1.46,1.17,.16,.06,.34,.07,.46,.21"/>
        <path class="cls-1" d="M6.05,15.82s0,.11,.03,.14c.51,.52,.94,1.14,1.57,1.52,.87,.53,1.98,.39,2.75-.27,.37-.31,.67-.7,1.05-1,.32,.79,.8,1.51,.75,2.43-.06,1.18-.78,2.22-1.84,2.6-.34,.12-.6,.02-.69-.28-.1-.34,.07-.52,.36-.64,.9-.4,1.28-1.05,1.23-2.06-.01-.26-.08-.48-.36-.48-.28,0-.35,.22-.33,.48,.02,.28,0,.55-.12,.82-.11,.25-.19,.3-.38,.04-.56-.77-1.3-1.19-2.25-1.08-.82,.09-1.41,.59-1.88,1.29-.26-.2-.31-.48-.34-.76-.01-.14,0-.28,0-.42,0-.23-.12-.37-.33-.38-.19,0-.31,.11-.35,.32-.17,.94,.29,1.82,1.14,2.19,.03,.02,.07,.03,.1,.04,.27,.12,.41,.31,.33,.63-.08,.29-.34,.4-.65,.29-1.7-.58-2.18-2.53-1.71-3.68,.31-.77,.65-1.53,1.02-2.28,.14-.28,.23-.25,.4-.04,.15,.2,.33,.38,.49,.56"/>
        <path class="cls-1" d="M9.92,5.59c.25-1.17,1.37-2.09,2.59-2.12,1.2-.02,2.37,.89,2.67,2.08,.41,1.62-.51,3.24-2.02,3.56-.23,.07-.29-.11-.36-.28-.23-.51-.45-1.01-.79-1.46-.48-.62-1.08-1.06-1.76-1.39-.17-.08-.39-.12-.32-.41"/>
        <path class="cls-6" d="M9.61,19.69c-.64,.54-.81,1.04-.55,1.63,.16,.36,.43,.59,.79,.66,.21,.05,.21,.12,.16,.31-.14,.54-.37,1.02-.77,1.4-.69,.66-1.61,.66-2.31,0-.3-.28-.51-.61-.65-1-.07-.19-.17-.4-.14-.58,.03-.19,.29-.15,.44-.23,.77-.4,.87-1.49,.15-2.05-.18-.14-.17-.2-.04-.36,.82-1.06,2.11-.97,2.91,.21"/>
        <path class="cls-2" d="M18.59,15.38c.29,0,.48,.05,.5,.34,.02,.3-.17,.36-.4,.38-1.04,.08-1.78,.61-2.2,1.62-.14,.34-.19,.7-.2,1.08-.02,.68,.09,1.38-.07,2.05-.31,1.27-1.08,2.07-2.28,2.44-.27,.08-.34,.02-.28-.28,.06-.28,.16-.43,.44-.55,1-.43,1.48-1.28,1.53-2.39,.02-.55,0-1.09,0-1.64,.04-1.59,1.49-3.06,2.95-3.05"/>
        <path class="cls-2" d="M9.92,5.59c0,.15,.1,.22,.22,.27,1.35,.54,2.21,1.58,2.74,2.96,.06,.14,.09,.3,.27,.31-.6,.19-.76,.13-1.02-.41-.44-.91-1.11-1.6-1.99-2.02-.32-.16-.42-.34-.33-.66,.04-.14-.02-.31,.1-.43"/>
        <path class="cls-2" d="M5.45,22.4c-.85-.13-1.47-.63-1.99-1.32-.06-.09-.06-.31-.27-.21,.03-.36,.14-.7,.26-1.08,.18,.32,.33,.61,.5,.87,.27,.42,.62,.77,1.06,.97,.35,.16,.45,.41,.44,.77"/>
        <path class="cls-2" d="M12.92,20.71c-.38,.66-.86,1.18-1.55,1.49-.21,.1-.43,.17-.66,.18,0-.35,.11-.59,.45-.76,.72-.37,1.19-1.01,1.51-1.82,.18,.3,.23,.6,.25,.91"/>
        <path class="cls-5" d="M11.33,26.51c.32-.29,.64-.54,.93-.84,.25-.27,.52-.15,.77-.01,.28,.15,.44,.4,.47,.72,.02,.16-.12,.13-.21,.13-.65,0-1.31,0-1.96,0"/>
        <path class="cls-5" d="M4.89,26.51c-.73,0-1.38,0-2.03,0-.18,0-.21-.09-.17-.24,.1-.36,.32-.59,.66-.71,.3-.11,.5,.01,.71,.23,.24,.24,.51,.45,.83,.72"/>
        <path class="cls-7" d="M8.09,15.54c.29,0,.55,.25,.55,.54,0,.12-.4,.5-.53,.5-.1,0-.59-.42-.59-.51-.01-.25,.29-.53,.57-.53"/>
        <path class="cls-8" d="M7.47,10.33c-.04,.22-.17,.4-.41,.33-.36-.1-.71-.13-1.07,0-.18,.06-.32-.04-.38-.2-.08-.18-.03-.37,.15-.45,.5-.23,1.01-.23,1.51,0,.12,.05,.18,.17,.2,.32"/>
        <path class="cls-8" d="M10.58,10.31c.01,.25-.18,.43-.43,.35-.34-.11-.66-.12-1,0-.21,.08-.36-.02-.43-.22-.08-.22,.03-.38,.22-.45,.47-.19,.95-.18,1.42,0,.13,.05,.22,.15,.22,.32"/>
      </g>
    </g>
  </g>
</svg>