<?xml version="1.0" encoding="UTF-8"?>
<svg id="_Слой_2" data-name="Слой 2" xmlns="http://www.w3.org/2000/svg" xmlns:xlink="http://www.w3.org/1999/xlink" viewBox="0 0 60 30">
  <defs>
    <style>
      .cls-1 {
        fill: #fff;
      }

      .cls-2 {
        opacity: .3;
      }

      .cls-3 {
        fill: #fab63d;
      }

      .cls-4 {
        clip-path: url(#clippath);
      }

      .cls-5 {
        fill: none;
      }
    </style>
    <clipPath id="clippath">
      <rect class="cls-5" width="60" height="30"/>
    </clipPath>
  </defs>
  <g id="_Слой_1-2" data-name="Слой 1">
    <g>
      <g class="cls-2">
        <g class="cls-4">
          <path class="cls-3" d="M53.85,30H6.15C2.75,30,0,27.17,0,23.69V6.31C0,2.83,2.75,0,6.15,0H53.85C57.25,0,60,2.83,60,6.31V23.69c0,3.49-2.75,6.31-6.15,6.31"/>
        </g>
      </g>
      <path class="cls-3" d="M48.35,24H11.65c-3.4,0-6.15-2.79-6.15-6.24v-5.52c0-3.44,2.75-6.24,6.15-6.24H48.35c3.4,0,6.15,2.79,6.15,6.24v5.52c0,3.44-2.75,6.24-6.15,6.24"/>
      <path class="cls-1" d="M14.96,19.24h-2.99c-.76,0-1.38-.52-1.38-1.17v-6.15c0-.64,.62-1.17,1.38-1.17h2.99c.76,0,1.38,.52,1.38,1.17v6.15c0,.64-.62,1.17-1.38,1.17"/>
      <path class="cls-1" d="M23.23,19.24h-2.99c-.76,0-1.38-.52-1.38-1.17v-6.15c0-.64,.62-1.17,1.38-1.17h2.99c.76,0,1.38,.52,1.38,1.17v6.15c0,.64-.62,1.17-1.38,1.17"/>
      <path class="cls-1" d="M31.5,19.24h-2.99c-.76,0-1.38-.52-1.38-1.17v-6.15c0-.64,.62-1.17,1.38-1.17h2.99c.76,0,1.38,.52,1.38,1.17v6.15c0,.64-.62,1.17-1.38,1.17"/>
      <path class="cls-1" d="M39.76,19.24h-2.99c-.76,0-1.38-.52-1.38-1.17v-6.15c0-.64,.62-1.17,1.38-1.17h2.99c.76,0,1.38,.52,1.38,1.17v6.15c0,.64-.62,1.17-1.38,1.17"/>
      <path class="cls-1" d="M48.03,19.24h-2.99c-.76,0-1.38-.52-1.38-1.17v-6.15c0-.64,.62-1.17,1.38-1.17h2.99c.76,0,1.38,.52,1.38,1.17v6.15c0,.64-.62,1.17-1.38,1.17"/>
    </g>
  </g>
</svg>