<?xml version="1.0" encoding="UTF-8"?>
<svg id="_Слой_2" data-name="Слой 2" xmlns="http://www.w3.org/2000/svg" xmlns:xlink="http://www.w3.org/1999/xlink" viewBox="0 0 50 50">
  <defs>
    <style>
      .cls-1 {
        opacity: .3;
      }

      .cls-2 {
        fill: #abc2e6;
      }

      .cls-3 {
        fill: #1d2446;
      }

      .cls-4 {
        clip-path: url(#clippath);
      }

      .cls-5 {
        fill: none;
      }
    </style>
    <clipPath id="clippath">
      <rect class="cls-5" width="50" height="50"/>
    </clipPath>
  </defs>
  <g id="_Слой_1-2" data-name="Слой 1">
    <g>
      <g class="cls-1">
        <g class="cls-4">
          <path class="cls-3" d="M50,25c0,13.81-11.19,25-25,25S0,38.81,0,25,11.19,0,25,0s25,11.19,25,25"/>
        </g>
      </g>
      <path class="cls-3" d="M44,25c0,10.49-8.51,19-19,19S6,35.49,6,25,14.51,6,25,6s19,8.51,19,19"/>
      <path class="cls-2" d="M24.97,30.14c-.77,0-1.55,0-2.32,0-.68,0-.92-.24-.92-.91,0-.33,.02-.66,0-.99,0-.12-.09-.28-.18-.34-1.73-1.06-2.86-2.56-3.26-4.53-.5-2.45,.17-4.6,1.96-6.35,1.57-1.53,3.49-2.12,5.67-1.87,2.65,.3,5.06,2.44,5.74,5.04,.8,3.07-.6,6.2-3.2,7.7-.16,.09-.21,.19-.21,.37,.01,.37,.01,.74,0,1.11-.01,.49-.28,.76-.77,.77-.84,0-1.67,0-2.51,0"/>
      <path class="cls-2" d="M25.01,31.11c.64,0,1.28,0,1.92,0,.46,0,.78,.29,.78,.7,0,.4-.32,.72-.77,.72-1.29,0-2.58,0-3.87,0-.45,0-.77-.33-.76-.73,0-.41,.32-.69,.79-.69,.64,0,1.28,0,1.92,0"/>
      <path class="cls-2" d="M25.01,33.47c.28,0,.56,0,.84,0,.4,.01,.69,.29,.71,.67,.02,.39-.26,.73-.67,.74-.59,.02-1.18,.02-1.76,0-.39-.01-.67-.34-.66-.72,0-.4,.3-.68,.72-.7,.28,0,.56,0,.84,0"/>
    </g>
  </g>
</svg>