<?xml version="1.0" encoding="UTF-8"?>
<svg id="_Слой_2" data-name="Слой 2" xmlns="http://www.w3.org/2000/svg" viewBox="0 0 20 30">
  <defs>
    <style>
      .cls-1 {
        fill: #fab63d;
      }

      .cls-2 {
        fill: #ebebeb;
      }
    </style>
  </defs>
  <g id="_Слой_1-2" data-name="Слой 1">
    <g>
      <rect class="cls-1" width="20" height="30" rx="6.38" ry="6.38"/>
      <g>
        <path class="cls-2" d="M9.31,14.27h-1.1c-.15,.01-.28,.01-.41,.01-.69,.02-1.23,.56-1.23,1.28,0,2.02,0,4.03,0,6.05,0,.71,.54,1.27,1.22,1.27,2.48,0,4.97,0,7.45,0,.69,0,1.23-.56,1.23-1.29,0-2.01,0-4.02,0-6.03,0-.73-.54-1.28-1.25-1.29-.13,0-.26,0-.4,0h0s-1.11-.01-1.11-.01h-4.39Z"/>
        <path class="cls-2" d="M10.03,9.75c-.35-1.75-2.14-2.95-3.8-2.58-1.61,.35-2.7,1.73-2.7,3.45,0,.54,0,1.77,0,2.34h1.1c.06-.8-.1-2.29,.11-3.07,.28-1.07,1.31-1.74,2.41-1.6,1.01,.13,1.84,1.05,1.88,2.12,.02,.61,0,3.23,0,3.86h1.11c0-.35,.01-2.67,0-3-.02-.51,0-1.03-.1-1.52"/>
      </g>
    </g>
  </g>
</svg>