<?xml version="1.0" encoding="UTF-8"?>
<svg id="_Слой_2" data-name="Слой 2" xmlns="http://www.w3.org/2000/svg" viewBox="0 0 30 17">
  <defs>
    <style>
      .cls-1 {
        fill: #abc2e6;
      }

      .cls-2 {
        fill: #1d2446;
      }
    </style>
  </defs>
  <g id="_Слой_1-2" data-name="Слой 1">
    <g>
      <path class="cls-2" d="M24.05,17H5.95c-3.29,0-5.95-2.64-5.95-5.89V5.89C0,2.64,2.66,0,5.95,0H24.05c3.29,0,5.95,2.64,5.95,5.89v5.22c0,3.25-2.66,5.89-5.95,5.89"/>
      <g>
        <path class="cls-1" d="M22.58,9.38c.27-.07,.35-.25,.34-.53-.01-1.58,0-3.17,0-4.75,0-.18-.03-.29-.2-.4-.4-.25-.54-.68-.4-1.12,.13-.41,.51-.69,.94-.69,.42,0,.79,.27,.93,.67,.15,.43,.01,.87-.38,1.13-.17,.11-.22,.22-.22,.42,0,1.61,0,3.21,0,4.82,0,.18,.03,.3,.2,.4,.33,.19,.46,.51,.46,.89,0,.79-.01,1.58,0,2.38,0,.47-.12,.85-.56,1.07-.44,.22-.83,.1-1.2-.24-.07,.09-.13,.17-.19,.26-.67,.91-1.56,1.4-2.7,1.4-3.07,0-6.14,0-9.2,0-1.13,0-2.03-.49-2.7-1.4-.06-.08-.11-.16-.18-.26-.07,.05-.12,.1-.18,.14-.31,.23-.65,.27-1,.11-.36-.17-.57-.46-.58-.86-.01-.9,0-1.8,0-2.71,0-.34,.16-.63,.45-.79,.18-.1,.21-.22,.2-.4,0-1.62,0-3.23-.01-4.85,0-.12-.09-.28-.19-.36-.38-.29-.54-.69-.41-1.12,.13-.42,.5-.7,.93-.7,.43,0,.81,.27,.95,.69,.14,.44,0,.87-.4,1.12-.17,.1-.21,.22-.21,.4,0,1.58,.01,3.17,0,4.75,0,.28,.07,.46,.33,.53,1.46-3.58,4.05-5.63,7.98-5.46,3.56,.15,5.89,2.17,7.19,5.47Zm-7.57,3.07c.96,0,1.91,0,2.87,0,.26,0,.53-.03,.78-.11,1.08-.34,1.76-1.4,1.61-2.47-.17-1.19-1.1-2.03-2.3-2.03-1.97-.01-3.94,0-5.91,0-.24,0-.49,.04-.71,.11-1.08,.35-1.76,1.41-1.61,2.47,.17,1.19,1.1,2.02,2.3,2.03,.99,.01,1.98,0,2.97,0Z"/>
        <path class="cls-1" d="M14.97,11.8c-.94,0-1.89,0-2.83,0-1.02,0-1.76-.71-1.75-1.66,0-.94,.74-1.64,1.74-1.64,1.92,0,3.85,0,5.77,0,1,0,1.73,.7,1.73,1.64,0,.94-.73,1.65-1.72,1.66-.98,0-1.96,0-2.93,0Zm-2.27-2.64c-.54,0-.98,.44-.99,.97,0,.54,.43,.99,.97,1,.55,.01,1.01-.44,1.01-.99,0-.54-.44-.98-.98-.98Zm4.61,0c-.54,0-.98,.44-.99,.98,0,.54,.43,.99,.97,1,.55,0,1.01-.45,1-1,0-.54-.45-.98-.99-.98Z"/>
      </g>
    </g>
  </g>
</svg>